<mxfile host="app.diagrams.net" agent="Mozilla/5.0 (Windows NT 10.0; Win64; x64) AppleWebKit/537.36 (KHTML, like Gecko) Chrome/125.0.0.0 Safari/537.36" version="24.7.12">
  <diagram name="Page-1" id="edf60f1a-56cd-e834-aa8a-f176f3a09ee4">
    <mxGraphModel dx="1924" dy="1950" grid="1" gridSize="10" guides="1" tooltips="1" connect="1" arrows="1" fold="1" page="1" pageScale="1" pageWidth="1100" pageHeight="850" background="none" math="0" shadow="0">
      <root>
        <mxCell id="0" />
        <mxCell id="1" parent="0" />
        <mxCell id="h60n3V_Y3-XpyphDbNl4-1" style="edgeStyle=orthogonalEdgeStyle;rounded=0;html=1;labelBackgroundColor=none;startSize=5;endArrow=classicThin;endFill=1;endSize=5;jettySize=auto;orthogonalLoop=1;strokeWidth=1;fontFamily=Verdana;fontSize=12;" parent="1" source="h60n3V_Y3-XpyphDbNl4-2" target="h60n3V_Y3-XpyphDbNl4-7" edge="1">
          <mxGeometry relative="1" as="geometry" />
        </mxCell>
        <mxCell id="h60n3V_Y3-XpyphDbNl4-2" value="Determine need to&amp;nbsp;&lt;div style=&quot;font-size: 12px;&quot;&gt;replenish value-add&amp;nbsp;&lt;/div&gt;&lt;div style=&quot;font-size: 12px;&quot;&gt;stock&lt;/div&gt;" style="shape=trapezoid;whiteSpace=wrap;html=1;rounded=0;shadow=1;labelBackgroundColor=none;strokeWidth=1;fontFamily=Verdana;fontSize=12;align=center;flipV=1;" parent="1" vertex="1">
          <mxGeometry x="1000" y="60" width="120" height="60" as="geometry" />
        </mxCell>
        <mxCell id="h60n3V_Y3-XpyphDbNl4-3" style="edgeStyle=orthogonalEdgeStyle;rounded=0;html=1;labelBackgroundColor=none;startSize=5;endArrow=classicThin;endFill=1;endSize=5;jettySize=auto;orthogonalLoop=1;strokeWidth=1;fontFamily=Verdana;fontSize=12;" parent="1" source="h60n3V_Y3-XpyphDbNl4-4" target="h60n3V_Y3-XpyphDbNl4-7" edge="1">
          <mxGeometry relative="1" as="geometry" />
        </mxCell>
        <mxCell id="h60n3V_Y3-XpyphDbNl4-4" value="Order a product that&lt;div style=&quot;font-size: 12px;&quot;&gt;requires value-add processing&lt;/div&gt;" style="rounded=0;whiteSpace=wrap;html=1;shadow=1;labelBackgroundColor=none;strokeWidth=1;fontFamily=Verdana;fontSize=12;align=center;" parent="1" vertex="1">
          <mxGeometry x="1190" y="60" width="120" height="60" as="geometry" />
        </mxCell>
        <mxCell id="h60n3V_Y3-XpyphDbNl4-5" value="Yes" style="edgeStyle=orthogonalEdgeStyle;rounded=0;html=1;labelBackgroundColor=none;startSize=5;endArrow=classicThin;endFill=1;endSize=5;jettySize=auto;orthogonalLoop=1;strokeWidth=1;fontFamily=Verdana;fontSize=12;" parent="1" source="h60n3V_Y3-XpyphDbNl4-7" target="h60n3V_Y3-XpyphDbNl4-10" edge="1">
          <mxGeometry x="-0.7778" y="10" relative="1" as="geometry">
            <mxPoint as="offset" />
          </mxGeometry>
        </mxCell>
        <mxCell id="h60n3V_Y3-XpyphDbNl4-6" value="No" style="edgeStyle=orthogonalEdgeStyle;rounded=0;html=1;labelBackgroundColor=none;startSize=5;endArrow=classicThin;endFill=1;endSize=5;jettySize=auto;orthogonalLoop=1;strokeWidth=1;fontFamily=Verdana;fontSize=12;" parent="1" source="h60n3V_Y3-XpyphDbNl4-7" target="h60n3V_Y3-XpyphDbNl4-14" edge="1">
          <mxGeometry x="-0.5" y="10" relative="1" as="geometry">
            <mxPoint as="offset" />
          </mxGeometry>
        </mxCell>
        <mxCell id="h60n3V_Y3-XpyphDbNl4-7" value="Frequently&lt;div style=&quot;font-size: 12px;&quot;&gt;performed&lt;/div&gt;&lt;div style=&quot;font-size: 12px;&quot;&gt;process?&lt;/div&gt;" style="rhombus;whiteSpace=wrap;html=1;rounded=0;shadow=1;labelBackgroundColor=none;strokeWidth=1;fontFamily=Verdana;fontSize=12;align=center;" parent="1" vertex="1">
          <mxGeometry x="1100" y="160" width="100" height="60" as="geometry" />
        </mxCell>
        <mxCell id="h60n3V_Y3-XpyphDbNl4-8" value="Yes" style="edgeStyle=orthogonalEdgeStyle;rounded=0;html=1;labelBackgroundColor=none;startSize=5;endArrow=classicThin;endFill=1;endSize=5;jettySize=auto;orthogonalLoop=1;strokeWidth=1;fontFamily=Verdana;fontSize=12;" parent="1" source="h60n3V_Y3-XpyphDbNl4-10" target="h60n3V_Y3-XpyphDbNl4-12" edge="1">
          <mxGeometry x="-0.6667" y="10" relative="1" as="geometry">
            <mxPoint as="offset" />
          </mxGeometry>
        </mxCell>
        <mxCell id="h60n3V_Y3-XpyphDbNl4-9" value="No" style="edgeStyle=orthogonalEdgeStyle;rounded=0;html=1;labelBackgroundColor=none;startSize=5;endArrow=classicThin;endFill=1;endSize=5;jettySize=auto;orthogonalLoop=1;strokeWidth=1;fontFamily=Verdana;fontSize=12;" parent="1" source="h60n3V_Y3-XpyphDbNl4-10" target="h60n3V_Y3-XpyphDbNl4-16" edge="1">
          <mxGeometry x="-1" y="-10" relative="1" as="geometry">
            <mxPoint x="1340" y="240" as="targetPoint" />
            <Array as="points" />
            <mxPoint as="offset" />
          </mxGeometry>
        </mxCell>
        <mxCell id="h60n3V_Y3-XpyphDbNl4-10" value="New&amp;nbsp;&lt;div style=&quot;font-size: 12px;&quot;&gt;template&amp;nbsp;&lt;/div&gt;&lt;div style=&quot;font-size: 12px;&quot;&gt;needed?&lt;/div&gt;" style="rhombus;whiteSpace=wrap;html=1;rounded=0;shadow=1;labelBackgroundColor=none;strokeWidth=1;fontFamily=Verdana;fontSize=12;align=center;" parent="1" vertex="1">
          <mxGeometry x="1290" y="160" width="100" height="60" as="geometry" />
        </mxCell>
        <mxCell id="h60n3V_Y3-XpyphDbNl4-11" style="edgeStyle=orthogonalEdgeStyle;rounded=0;html=1;labelBackgroundColor=none;startSize=5;endArrow=classicThin;endFill=1;endSize=5;jettySize=auto;orthogonalLoop=1;strokeWidth=1;fontFamily=Verdana;fontSize=12;" parent="1" source="h60n3V_Y3-XpyphDbNl4-12" target="h60n3V_Y3-XpyphDbNl4-16" edge="1">
          <mxGeometry relative="1" as="geometry">
            <Array as="points">
              <mxPoint x="1500" y="230" />
              <mxPoint x="1340" y="230" />
            </Array>
          </mxGeometry>
        </mxCell>
        <mxCell id="h60n3V_Y3-XpyphDbNl4-12" value="Create work&amp;nbsp;&lt;div style=&quot;font-size: 12px;&quot;&gt;order template&lt;/div&gt;" style="rounded=1;whiteSpace=wrap;html=1;shadow=1;labelBackgroundColor=none;strokeWidth=1;fontFamily=Verdana;fontSize=12;align=center;" parent="1" vertex="1">
          <mxGeometry x="1450" y="170" width="100" height="40" as="geometry" />
        </mxCell>
        <mxCell id="h60n3V_Y3-XpyphDbNl4-13" style="edgeStyle=orthogonalEdgeStyle;rounded=0;html=1;labelBackgroundColor=none;startSize=5;endArrow=classicThin;endFill=1;endSize=5;jettySize=auto;orthogonalLoop=1;strokeWidth=1;fontFamily=Verdana;fontSize=12;" parent="1" source="h60n3V_Y3-XpyphDbNl4-14" target="h60n3V_Y3-XpyphDbNl4-18" edge="1">
          <mxGeometry relative="1" as="geometry" />
        </mxCell>
        <mxCell id="h60n3V_Y3-XpyphDbNl4-14" value="Create a work order" style="whiteSpace=wrap;html=1;rounded=0;shadow=1;labelBackgroundColor=none;strokeWidth=1;fontFamily=Verdana;fontSize=12;align=center;" parent="1" vertex="1">
          <mxGeometry x="1090" y="260" width="120" height="40" as="geometry" />
        </mxCell>
        <mxCell id="h60n3V_Y3-XpyphDbNl4-15" style="edgeStyle=orthogonalEdgeStyle;rounded=0;html=1;labelBackgroundColor=none;startSize=5;endArrow=classicThin;endFill=1;endSize=5;jettySize=auto;orthogonalLoop=1;strokeWidth=1;fontFamily=Verdana;fontSize=12;" parent="1" source="h60n3V_Y3-XpyphDbNl4-16" target="h60n3V_Y3-XpyphDbNl4-20" edge="1">
          <mxGeometry relative="1" as="geometry" />
        </mxCell>
        <mxCell id="h60n3V_Y3-XpyphDbNl4-16" value="Copy template&amp;nbsp;&lt;div style=&quot;font-size: 12px;&quot;&gt;to work order&lt;/div&gt;" style="whiteSpace=wrap;html=1;rounded=0;shadow=1;labelBackgroundColor=none;strokeWidth=1;fontFamily=Verdana;fontSize=12;align=center;" parent="1" vertex="1">
          <mxGeometry x="1280" y="260" width="120" height="40" as="geometry" />
        </mxCell>
        <mxCell id="h60n3V_Y3-XpyphDbNl4-17" style="edgeStyle=orthogonalEdgeStyle;rounded=0;html=1;labelBackgroundColor=none;startSize=5;endArrow=classicThin;endFill=1;endSize=5;jettySize=auto;orthogonalLoop=1;strokeWidth=1;fontFamily=Verdana;fontSize=12;" parent="1" source="h60n3V_Y3-XpyphDbNl4-18" target="h60n3V_Y3-XpyphDbNl4-22" edge="1">
          <mxGeometry relative="1" as="geometry" />
        </mxCell>
        <mxCell id="h60n3V_Y3-XpyphDbNl4-18" value="Add materials to work order processes" style="whiteSpace=wrap;html=1;rounded=0;shadow=1;labelBackgroundColor=none;strokeWidth=1;fontFamily=Verdana;fontSize=12;align=center;spacing=6;" parent="1" vertex="1">
          <mxGeometry x="1090" y="350" width="120" height="40" as="geometry" />
        </mxCell>
        <mxCell id="h60n3V_Y3-XpyphDbNl4-19" style="edgeStyle=orthogonalEdgeStyle;rounded=0;html=1;labelBackgroundColor=none;startSize=5;endArrow=classicThin;endFill=1;endSize=5;jettySize=auto;orthogonalLoop=1;strokeWidth=1;fontFamily=Verdana;fontSize=12;" parent="1" source="h60n3V_Y3-XpyphDbNl4-20" target="h60n3V_Y3-XpyphDbNl4-22" edge="1">
          <mxGeometry relative="1" as="geometry" />
        </mxCell>
        <mxCell id="h60n3V_Y3-XpyphDbNl4-20" value="Adjust material quantities if needed" style="whiteSpace=wrap;html=1;rounded=0;shadow=1;labelBackgroundColor=none;strokeWidth=1;fontFamily=Verdana;fontSize=12;align=center;spacing=6;" parent="1" vertex="1">
          <mxGeometry x="1280" y="350" width="120" height="40" as="geometry" />
        </mxCell>
        <mxCell id="h60n3V_Y3-XpyphDbNl4-21" style="edgeStyle=orthogonalEdgeStyle;rounded=0;html=1;labelBackgroundColor=none;startSize=5;endArrow=classicThin;endFill=1;endSize=5;jettySize=auto;orthogonalLoop=1;strokeWidth=1;fontFamily=Verdana;fontSize=12;" parent="1" source="h60n3V_Y3-XpyphDbNl4-22" target="h60n3V_Y3-XpyphDbNl4-25" edge="1">
          <mxGeometry relative="1" as="geometry" />
        </mxCell>
        <mxCell id="h60n3V_Y3-XpyphDbNl4-22" value="Monitor work orders" style="whiteSpace=wrap;html=1;rounded=0;shadow=1;labelBackgroundColor=none;strokeWidth=1;fontFamily=Verdana;fontSize=12;align=center;" parent="1" vertex="1">
          <mxGeometry x="1180" y="440" width="120" height="40" as="geometry" />
        </mxCell>
        <mxCell id="h60n3V_Y3-XpyphDbNl4-23" value="Yes" style="edgeStyle=orthogonalEdgeStyle;rounded=0;html=1;labelBackgroundColor=none;startSize=5;endArrow=classicThin;endFill=1;endSize=5;jettySize=auto;orthogonalLoop=1;strokeWidth=1;fontFamily=Verdana;fontSize=12;" parent="1" source="h60n3V_Y3-XpyphDbNl4-25" target="h60n3V_Y3-XpyphDbNl4-27" edge="1">
          <mxGeometry x="-0.6667" y="10" relative="1" as="geometry">
            <mxPoint as="offset" />
          </mxGeometry>
        </mxCell>
        <mxCell id="h60n3V_Y3-XpyphDbNl4-24" value="No" style="edgeStyle=orthogonalEdgeStyle;rounded=0;html=1;labelBackgroundColor=none;startSize=5;endArrow=classicThin;endFill=1;endSize=5;jettySize=auto;orthogonalLoop=1;strokeWidth=1;fontFamily=Verdana;fontSize=12;" parent="1" source="h60n3V_Y3-XpyphDbNl4-25" target="h60n3V_Y3-XpyphDbNl4-29" edge="1">
          <mxGeometry x="-0.5" y="-10" relative="1" as="geometry">
            <mxPoint as="offset" />
          </mxGeometry>
        </mxCell>
        <mxCell id="h60n3V_Y3-XpyphDbNl4-25" value="Material&amp;nbsp;&lt;div style=&quot;font-size: 12px;&quot;&gt;quantities not&amp;nbsp;&lt;/div&gt;&lt;div style=&quot;font-size: 12px;&quot;&gt;in stock?&lt;/div&gt;" style="rhombus;whiteSpace=wrap;html=1;rounded=0;shadow=1;labelBackgroundColor=none;strokeWidth=1;fontFamily=Verdana;fontSize=12;align=center;" parent="1" vertex="1">
          <mxGeometry x="1190" y="510" width="100" height="60" as="geometry" />
        </mxCell>
        <mxCell id="h60n3V_Y3-XpyphDbNl4-26" style="edgeStyle=orthogonalEdgeStyle;rounded=0;html=1;labelBackgroundColor=none;startSize=5;endArrow=classicThin;endFill=1;endSize=5;jettySize=auto;orthogonalLoop=1;strokeWidth=1;fontFamily=Verdana;fontSize=12;" parent="1" source="h60n3V_Y3-XpyphDbNl4-27" target="h60n3V_Y3-XpyphDbNl4-29" edge="1">
          <mxGeometry relative="1" as="geometry">
            <Array as="points">
              <mxPoint x="1410" y="590" />
              <mxPoint x="1240" y="590" />
            </Array>
          </mxGeometry>
        </mxCell>
        <mxCell id="h60n3V_Y3-XpyphDbNl4-27" value="Procedure or&amp;nbsp;&lt;div style=&quot;font-size: 12px;&quot;&gt;transfer materials&lt;/div&gt;" style="whiteSpace=wrap;html=1;rounded=0;shadow=1;labelBackgroundColor=none;strokeWidth=1;fontFamily=Verdana;fontSize=12;align=center;" parent="1" vertex="1">
          <mxGeometry x="1350" y="520" width="120" height="40" as="geometry" />
        </mxCell>
        <mxCell id="h60n3V_Y3-XpyphDbNl4-28" style="edgeStyle=orthogonalEdgeStyle;rounded=0;html=1;labelBackgroundColor=none;startSize=5;endArrow=classicThin;endFill=1;endSize=5;jettySize=auto;orthogonalLoop=1;strokeWidth=1;fontFamily=Verdana;fontSize=12;" parent="1" source="h60n3V_Y3-XpyphDbNl4-29" target="h60n3V_Y3-XpyphDbNl4-32" edge="1">
          <mxGeometry relative="1" as="geometry" />
        </mxCell>
        <mxCell id="h60n3V_Y3-XpyphDbNl4-29" value="Change status to&lt;div style=&quot;font-size: 12px;&quot;&gt;In Process&lt;/div&gt;" style="whiteSpace=wrap;html=1;rounded=0;shadow=1;labelBackgroundColor=none;strokeWidth=1;fontFamily=Verdana;fontSize=12;align=center;" parent="1" vertex="1">
          <mxGeometry x="1180" y="610" width="120" height="40" as="geometry" />
        </mxCell>
        <mxCell id="h60n3V_Y3-XpyphDbNl4-30" value="Yes" style="edgeStyle=orthogonalEdgeStyle;rounded=0;html=1;labelBackgroundColor=none;startSize=5;endArrow=classicThin;endFill=1;endSize=5;jettySize=auto;orthogonalLoop=1;strokeWidth=1;fontFamily=Verdana;fontSize=12;" parent="1" source="h60n3V_Y3-XpyphDbNl4-32" target="h60n3V_Y3-XpyphDbNl4-34" edge="1">
          <mxGeometry x="-0.6667" y="10" relative="1" as="geometry">
            <mxPoint as="offset" />
          </mxGeometry>
        </mxCell>
        <mxCell id="h60n3V_Y3-XpyphDbNl4-31" value="No" style="edgeStyle=orthogonalEdgeStyle;rounded=0;html=1;labelBackgroundColor=none;startSize=5;endArrow=classicThin;endFill=1;endSize=5;jettySize=auto;orthogonalLoop=1;strokeWidth=1;fontFamily=Verdana;fontSize=12;" parent="1" source="h60n3V_Y3-XpyphDbNl4-32" target="h60n3V_Y3-XpyphDbNl4-36" edge="1">
          <mxGeometry x="-1" y="-10" relative="1" as="geometry">
            <mxPoint as="offset" />
          </mxGeometry>
        </mxCell>
        <mxCell id="h60n3V_Y3-XpyphDbNl4-32" value="Step&amp;nbsp;&lt;div style=&quot;font-size: 12px;&quot;&gt;performed by&amp;nbsp;&lt;/div&gt;&lt;div style=&quot;font-size: 12px;&quot;&gt;outside&amp;nbsp;&lt;/div&gt;&lt;div style=&quot;font-size: 12px;&quot;&gt;vendor?&lt;/div&gt;" style="rhombus;whiteSpace=wrap;html=1;rounded=0;shadow=1;labelBackgroundColor=none;strokeWidth=1;fontFamily=Verdana;fontSize=12;align=center;" parent="1" vertex="1">
          <mxGeometry x="1190" y="680" width="100" height="60" as="geometry" />
        </mxCell>
        <mxCell id="h60n3V_Y3-XpyphDbNl4-33" style="edgeStyle=orthogonalEdgeStyle;rounded=0;html=1;labelBackgroundColor=none;startSize=5;endArrow=classicThin;endFill=1;endSize=5;jettySize=auto;orthogonalLoop=1;strokeWidth=1;fontFamily=Verdana;fontSize=12;" parent="1" source="h60n3V_Y3-XpyphDbNl4-34" target="h60n3V_Y3-XpyphDbNl4-39" edge="1">
          <mxGeometry relative="1" as="geometry" />
        </mxCell>
        <mxCell id="h60n3V_Y3-XpyphDbNl4-34" value="Add or adjust vendor costs" style="whiteSpace=wrap;html=1;rounded=0;shadow=1;labelBackgroundColor=none;strokeWidth=1;fontFamily=Verdana;fontSize=12;align=center;" parent="1" vertex="1">
          <mxGeometry x="1350" y="690" width="120" height="40" as="geometry" />
        </mxCell>
        <mxCell id="h60n3V_Y3-XpyphDbNl4-35" style="edgeStyle=orthogonalEdgeStyle;rounded=0;html=1;labelBackgroundColor=none;startSize=5;endArrow=classicThin;endFill=1;endSize=5;jettySize=auto;orthogonalLoop=1;strokeWidth=1;fontFamily=Verdana;fontSize=12;" parent="1" source="h60n3V_Y3-XpyphDbNl4-36" target="h60n3V_Y3-XpyphDbNl4-42" edge="1">
          <mxGeometry relative="1" as="geometry" />
        </mxCell>
        <mxCell id="h60n3V_Y3-XpyphDbNl4-36" value="Perform work&amp;nbsp;&lt;div style=&quot;font-size: 12px;&quot;&gt;order step&lt;/div&gt;" style="shape=trapezoid;whiteSpace=wrap;html=1;rounded=0;shadow=1;labelBackgroundColor=none;strokeWidth=1;fontFamily=Verdana;fontSize=12;align=center;flipV=1;" parent="1" vertex="1">
          <mxGeometry x="1180" y="780" width="120" height="60" as="geometry" />
        </mxCell>
        <mxCell id="h60n3V_Y3-XpyphDbNl4-37" style="edgeStyle=orthogonalEdgeStyle;rounded=0;html=1;labelBackgroundColor=none;startSize=5;endArrow=classicThin;endFill=1;endSize=5;jettySize=auto;orthogonalLoop=1;strokeWidth=1;fontFamily=Verdana;fontSize=12;" parent="1" source="h60n3V_Y3-XpyphDbNl4-39" target="h60n3V_Y3-XpyphDbNl4-44" edge="1">
          <mxGeometry relative="1" as="geometry" />
        </mxCell>
        <mxCell id="h60n3V_Y3-XpyphDbNl4-38" style="edgeStyle=orthogonalEdgeStyle;rounded=0;html=1;labelBackgroundColor=none;startSize=5;endArrow=classicThin;endFill=1;endSize=5;jettySize=auto;orthogonalLoop=1;strokeWidth=1;fontFamily=Verdana;fontSize=12;" parent="1" source="h60n3V_Y3-XpyphDbNl4-39" target="h60n3V_Y3-XpyphDbNl4-54" edge="1">
          <mxGeometry relative="1" as="geometry">
            <Array as="points">
              <mxPoint x="1410" y="860" />
              <mxPoint x="1580" y="860" />
            </Array>
          </mxGeometry>
        </mxCell>
        <mxCell id="h60n3V_Y3-XpyphDbNl4-39" value="Ship materials&amp;nbsp;&lt;div style=&quot;font-size: 12px;&quot;&gt;to vendor&lt;/div&gt;" style="rounded=1;whiteSpace=wrap;html=1;shadow=1;labelBackgroundColor=none;strokeWidth=1;fontFamily=Verdana;fontSize=12;align=center;" parent="1" vertex="1">
          <mxGeometry x="1350" y="790" width="120" height="40" as="geometry" />
        </mxCell>
        <mxCell id="h60n3V_Y3-XpyphDbNl4-40" value="Yes" style="edgeStyle=orthogonalEdgeStyle;rounded=0;html=1;labelBackgroundColor=none;startSize=5;endArrow=classicThin;endFill=1;endSize=5;jettySize=auto;orthogonalLoop=1;strokeWidth=1;fontFamily=Verdana;fontSize=12;" parent="1" source="h60n3V_Y3-XpyphDbNl4-42" target="h60n3V_Y3-XpyphDbNl4-32" edge="1">
          <mxGeometry x="-0.6924" y="-20" relative="1" as="geometry">
            <Array as="points">
              <mxPoint x="1160" y="909.9999999999998" />
              <mxPoint x="1160" y="710" />
            </Array>
            <mxPoint as="offset" />
          </mxGeometry>
        </mxCell>
        <mxCell id="h60n3V_Y3-XpyphDbNl4-41" value="No" style="edgeStyle=orthogonalEdgeStyle;rounded=0;html=1;labelBackgroundColor=none;startSize=5;endArrow=classicThin;endFill=1;endSize=5;jettySize=auto;orthogonalLoop=1;strokeWidth=1;fontFamily=Verdana;fontSize=12;" parent="1" source="h60n3V_Y3-XpyphDbNl4-42" target="h60n3V_Y3-XpyphDbNl4-46" edge="1">
          <mxGeometry x="-1" y="-10" relative="1" as="geometry">
            <mxPoint as="offset" />
          </mxGeometry>
        </mxCell>
        <mxCell id="h60n3V_Y3-XpyphDbNl4-42" value="Additional&amp;nbsp;&lt;div style=&quot;font-size: 12px;&quot;&gt;processing&amp;nbsp;&lt;/div&gt;&lt;div style=&quot;font-size: 12px;&quot;&gt;required?&lt;/div&gt;" style="rhombus;whiteSpace=wrap;html=1;rounded=0;shadow=1;labelBackgroundColor=none;strokeWidth=1;fontFamily=Verdana;fontSize=12;align=center;" parent="1" vertex="1">
          <mxGeometry x="1190" y="880" width="100" height="60" as="geometry" />
        </mxCell>
        <mxCell id="h60n3V_Y3-XpyphDbNl4-43" style="edgeStyle=orthogonalEdgeStyle;rounded=0;html=1;labelBackgroundColor=none;startSize=5;endArrow=classicThin;endFill=1;endSize=5;jettySize=auto;orthogonalLoop=1;strokeWidth=1;fontFamily=Verdana;fontSize=12;" parent="1" source="h60n3V_Y3-XpyphDbNl4-44" target="h60n3V_Y3-XpyphDbNl4-48" edge="1">
          <mxGeometry relative="1" as="geometry" />
        </mxCell>
        <mxCell id="h60n3V_Y3-XpyphDbNl4-44" value="Perform work&amp;nbsp;&lt;div style=&quot;font-size: 12px;&quot;&gt;order step&lt;/div&gt;" style="shape=trapezoid;whiteSpace=wrap;html=1;rounded=0;shadow=1;labelBackgroundColor=none;strokeWidth=1;fontFamily=Verdana;fontSize=12;align=center;flipV=1;" parent="1" vertex="1">
          <mxGeometry x="1350" y="880" width="120" height="60" as="geometry" />
        </mxCell>
        <mxCell id="h60n3V_Y3-XpyphDbNl4-45" style="edgeStyle=orthogonalEdgeStyle;rounded=0;html=1;labelBackgroundColor=none;startSize=5;endArrow=classicThin;endFill=1;endSize=5;jettySize=auto;orthogonalLoop=1;strokeWidth=1;fontFamily=Verdana;fontSize=12;" parent="1" source="h60n3V_Y3-XpyphDbNl4-46" target="h60n3V_Y3-XpyphDbNl4-50" edge="1">
          <mxGeometry relative="1" as="geometry" />
        </mxCell>
        <mxCell id="h60n3V_Y3-XpyphDbNl4-46" value="Receive info stock" style="rounded=1;whiteSpace=wrap;html=1;shadow=1;labelBackgroundColor=none;strokeWidth=1;fontFamily=Verdana;fontSize=12;align=center;" parent="1" vertex="1">
          <mxGeometry x="1180" y="980" width="120" height="40" as="geometry" />
        </mxCell>
        <mxCell id="h60n3V_Y3-XpyphDbNl4-47" style="edgeStyle=orthogonalEdgeStyle;rounded=0;html=1;labelBackgroundColor=none;startSize=5;endArrow=classicThin;endFill=1;endSize=5;jettySize=auto;orthogonalLoop=1;strokeWidth=1;fontFamily=Verdana;fontSize=12;" parent="1" source="h60n3V_Y3-XpyphDbNl4-48" target="h60n3V_Y3-XpyphDbNl4-53" edge="1">
          <mxGeometry relative="1" as="geometry" />
        </mxCell>
        <mxCell id="h60n3V_Y3-XpyphDbNl4-48" value="Receive product&amp;nbsp;&lt;div style=&quot;font-size: 12px;&quot;&gt;from vendor&lt;/div&gt;" style="rounded=1;whiteSpace=wrap;html=1;shadow=1;labelBackgroundColor=none;strokeWidth=1;fontFamily=Verdana;fontSize=12;align=center;" parent="1" vertex="1">
          <mxGeometry x="1350" y="980" width="120" height="40" as="geometry" />
        </mxCell>
        <mxCell id="h60n3V_Y3-XpyphDbNl4-49" style="edgeStyle=orthogonalEdgeStyle;rounded=0;html=1;labelBackgroundColor=none;startSize=5;endArrow=classicThin;endFill=1;endSize=5;jettySize=auto;orthogonalLoop=1;strokeWidth=1;fontFamily=Verdana;fontSize=12;" parent="1" source="h60n3V_Y3-XpyphDbNl4-50" target="h60n3V_Y3-XpyphDbNl4-56" edge="1">
          <mxGeometry relative="1" as="geometry" />
        </mxCell>
        <mxCell id="h60n3V_Y3-XpyphDbNl4-50" value="Ship product on order if needed" style="rounded=1;whiteSpace=wrap;html=1;shadow=1;labelBackgroundColor=none;strokeWidth=1;fontFamily=Verdana;fontSize=12;align=center;" parent="1" vertex="1">
          <mxGeometry x="1180" y="1060" width="120" height="40" as="geometry" />
        </mxCell>
        <mxCell id="h60n3V_Y3-XpyphDbNl4-51" value="No" style="edgeStyle=orthogonalEdgeStyle;rounded=0;html=1;labelBackgroundColor=none;startSize=5;endArrow=classicThin;endFill=1;endSize=5;jettySize=auto;orthogonalLoop=1;strokeWidth=1;fontFamily=Verdana;fontSize=12;" parent="1" source="h60n3V_Y3-XpyphDbNl4-53" target="h60n3V_Y3-XpyphDbNl4-58" edge="1">
          <mxGeometry x="0.2" y="14" relative="1" as="geometry">
            <mxPoint x="-24" y="-10" as="offset" />
          </mxGeometry>
        </mxCell>
        <mxCell id="h60n3V_Y3-XpyphDbNl4-52" value="Yes" style="edgeStyle=orthogonalEdgeStyle;rounded=0;html=1;labelBackgroundColor=none;startSize=5;endArrow=classicThin;endFill=1;endSize=5;jettySize=auto;orthogonalLoop=1;strokeWidth=1;fontFamily=Verdana;fontSize=12;" parent="1" source="h60n3V_Y3-XpyphDbNl4-53" target="h60n3V_Y3-XpyphDbNl4-54" edge="1">
          <mxGeometry x="-0.6667" y="10" relative="1" as="geometry">
            <mxPoint as="offset" />
          </mxGeometry>
        </mxCell>
        <mxCell id="h60n3V_Y3-XpyphDbNl4-53" value="Only partial&amp;nbsp;&lt;div style=&quot;font-size: 12px;&quot;&gt;quality&amp;nbsp;&lt;/div&gt;&lt;div style=&quot;font-size: 12px;&quot;&gt;received?&lt;/div&gt;" style="rhombus;whiteSpace=wrap;html=1;rounded=0;shadow=1;labelBackgroundColor=none;strokeWidth=1;fontFamily=Verdana;fontSize=12;align=center;" parent="1" vertex="1">
          <mxGeometry x="1360" y="1050" width="100" height="60" as="geometry" />
        </mxCell>
        <mxCell id="h60n3V_Y3-XpyphDbNl4-54" value="Create work&amp;nbsp;&lt;div style=&quot;font-size: 12px;&quot;&gt;order backorder&lt;/div&gt;" style="whiteSpace=wrap;html=1;rounded=0;shadow=1;labelBackgroundColor=none;strokeWidth=1;fontFamily=Verdana;fontSize=12;align=center;" parent="1" vertex="1">
          <mxGeometry x="1520" y="1060" width="120" height="40" as="geometry" />
        </mxCell>
        <mxCell id="h60n3V_Y3-XpyphDbNl4-55" style="edgeStyle=orthogonalEdgeStyle;rounded=0;html=1;labelBackgroundColor=none;startSize=5;endArrow=classicThin;endFill=1;endSize=5;jettySize=auto;orthogonalLoop=1;strokeWidth=1;fontFamily=Verdana;fontSize=12;" parent="1" source="h60n3V_Y3-XpyphDbNl4-56" target="h60n3V_Y3-XpyphDbNl4-59" edge="1">
          <mxGeometry relative="1" as="geometry" />
        </mxCell>
        <mxCell id="h60n3V_Y3-XpyphDbNl4-56" value="Change status to&lt;div style=&quot;font-size: 12px;&quot;&gt;Complete&lt;/div&gt;" style="whiteSpace=wrap;html=1;rounded=0;shadow=1;labelBackgroundColor=none;strokeWidth=1;fontFamily=Verdana;fontSize=12;align=center;" parent="1" vertex="1">
          <mxGeometry x="1180" y="1140" width="120" height="40" as="geometry" />
        </mxCell>
        <mxCell id="h60n3V_Y3-XpyphDbNl4-57" style="edgeStyle=orthogonalEdgeStyle;rounded=0;html=1;labelBackgroundColor=none;startSize=5;endArrow=classicThin;endFill=1;endSize=5;jettySize=auto;orthogonalLoop=1;strokeWidth=1;fontFamily=Verdana;fontSize=12;" parent="1" source="h60n3V_Y3-XpyphDbNl4-58" target="h60n3V_Y3-XpyphDbNl4-42" edge="1">
          <mxGeometry relative="1" as="geometry">
            <Array as="points">
              <mxPoint x="1330" y="1160" />
              <mxPoint x="1330" y="860" />
              <mxPoint x="1240" y="860" />
            </Array>
          </mxGeometry>
        </mxCell>
        <mxCell id="h60n3V_Y3-XpyphDbNl4-58" value="Pay vendor invoice" style="rounded=1;whiteSpace=wrap;html=1;shadow=1;labelBackgroundColor=none;strokeWidth=1;fontFamily=Verdana;fontSize=12;align=center;" parent="1" vertex="1">
          <mxGeometry x="1350" y="1140" width="120" height="40" as="geometry" />
        </mxCell>
        <mxCell id="h60n3V_Y3-XpyphDbNl4-59" value="End" style="strokeWidth=1;html=1;shape=mxgraph.flowchart.terminator;whiteSpace=wrap;rounded=0;shadow=1;labelBackgroundColor=none;fontFamily=Verdana;fontSize=12;align=center;" parent="1" vertex="1">
          <mxGeometry x="1210" y="1230" width="60" height="30" as="geometry" />
        </mxCell>
        <mxCell id="h60n3V_Y3-XpyphDbNl4-299" value="스케쥴링에 따라 시작" style="html=1;overflow=block;blockSpacing=1;whiteSpace=wrap;fontSize=12;align=center;spacingLeft=8.4;spacingRight=8.4;spacingTop=2.4;spacing=3.6;strokeColor=#9391ff;strokeOpacity=100;fillOpacity=100;rounded=1;absoluteArcSize=1;arcSize=12;fillColor=#dedeff;strokeWidth=NaN;lucidId=Twa_85QtxR6H;" parent="1" vertex="1">
          <mxGeometry x="-523" y="128" width="172" height="90" as="geometry" />
        </mxCell>
        <mxCell id="h60n3V_Y3-XpyphDbNl4-362" style="edgeStyle=orthogonalEdgeStyle;rounded=0;orthogonalLoop=1;jettySize=auto;html=1;exitX=0;exitY=0.5;exitDx=0;exitDy=0;fontSize=12;" parent="1" source="h60n3V_Y3-XpyphDbNl4-300" edge="1">
          <mxGeometry relative="1" as="geometry">
            <mxPoint x="-680" y="440" as="targetPoint" />
          </mxGeometry>
        </mxCell>
        <mxCell id="h60n3V_Y3-XpyphDbNl4-300" value="인스타 링크인가?" style="html=1;overflow=block;blockSpacing=1;whiteSpace=wrap;rhombus;fontSize=12;fontColor=default;align=center;spacingLeft=8.4;spacingRight=8.4;spacingTop=2.4;spacing=3.6;strokeColor=#fcce14;strokeOpacity=100;fillOpacity=100;rounded=1;absoluteArcSize=1;arcSize=12;fillColor=#fcfcca;strokeWidth=NaN;lucidId=Twa_O-tT11z.;" parent="1" vertex="1">
          <mxGeometry x="-523" y="278" width="172" height="119" as="geometry" />
        </mxCell>
        <mxCell id="h60n3V_Y3-XpyphDbNl4-301" value="django-celery를 통해 매일 처리" style="html=1;overflow=block;blockSpacing=1;whiteSpace=wrap;fontSize=12;align=center;spacingLeft=8.4;spacingRight=8.4;spacingTop=2.4;spacing=3.6;strokeColor=#ff80df;strokeOpacity=100;fillOpacity=100;rounded=1;absoluteArcSize=1;arcSize=12;fillColor=#ffd6f5;strokeWidth=NaN;lucidId=Twa__QR-OJl-;" parent="1" vertex="1">
          <mxGeometry x="-281" y="450" width="172" height="90" as="geometry" />
        </mxCell>
        <mxCell id="h60n3V_Y3-XpyphDbNl4-302" value="" style="html=1;jettySize=18;whiteSpace=wrap;fontSize=12;strokeColor=#3a414a;strokeOpacity=100;strokeWidth=0.8;rounded=1;arcSize=24;edgeStyle=orthogonalEdgeStyle;startArrow=none;endArrow=block;endFill=1;exitX=0.5;exitY=1.008;exitPerimeter=0;entryX=0.5;entryY=0.009;entryPerimeter=0;lucidId=Twa_yVmM.Qg3;" parent="1" source="h60n3V_Y3-XpyphDbNl4-299" target="h60n3V_Y3-XpyphDbNl4-300" edge="1">
          <mxGeometry width="100" height="100" relative="1" as="geometry">
            <Array as="points" />
          </mxGeometry>
        </mxCell>
        <mxCell id="h60n3V_Y3-XpyphDbNl4-303" value="" style="html=1;jettySize=18;whiteSpace=wrap;fontSize=12;fontColor=default;fontStyle=1;align=center;strokeColor=#c3f7c8;strokeOpacity=100;strokeWidth=0.8;rounded=1;arcSize=24;edgeStyle=orthogonalEdgeStyle;startArrow=none;endArrow=block;endFill=1;exitX=0.373;exitY=0.881;exitPerimeter=0;entryX=0.5;entryY=-0.008;entryPerimeter=0;lucidId=Twa_y7D.WmxG;" parent="1" source="h60n3V_Y3-XpyphDbNl4-300" target="h60n3V_Y3-XpyphDbNl4-308" edge="1">
          <mxGeometry width="100" height="100" relative="1" as="geometry">
            <Array as="points" />
          </mxGeometry>
        </mxCell>
        <mxCell id="h60n3V_Y3-XpyphDbNl4-304" value="Yes" style="text;html=1;resizable=0;labelBackgroundColor=default;align=center;verticalAlign=middle;fontStyle=1;fontColor=default;fontSize=12;" parent="h60n3V_Y3-XpyphDbNl4-303" vertex="1">
          <mxGeometry relative="1" as="geometry">
            <mxPoint x="-14" y="-45" as="offset" />
          </mxGeometry>
        </mxCell>
        <mxCell id="h60n3V_Y3-XpyphDbNl4-305" value="" style="html=1;jettySize=18;whiteSpace=wrap;fontSize=12;fontColor=default;fontStyle=1;align=center;strokeColor=#3a414a;strokeOpacity=100;strokeWidth=0.8;rounded=1;arcSize=24;edgeStyle=orthogonalEdgeStyle;startArrow=none;endArrow=block;endFill=1;exitX=0.627;exitY=0.881;exitPerimeter=0;entryX=0.5;entryY=0;lucidId=Twa_dBFkao2a;entryDx=0;entryDy=0;" parent="1" target="h60n3V_Y3-XpyphDbNl4-301" edge="1">
          <mxGeometry width="100" height="100" relative="1" as="geometry">
            <Array as="points">
              <mxPoint x="-356" y="335" />
              <mxPoint x="-190" y="335" />
              <mxPoint x="-190" y="450" />
            </Array>
            <mxPoint x="-356.15599999999995" y="338.19899999999996" as="sourcePoint" />
            <mxPoint x="-136" y="404.63999999999976" as="targetPoint" />
          </mxGeometry>
        </mxCell>
        <mxCell id="h60n3V_Y3-XpyphDbNl4-306" value="No" style="text;html=1;resizable=0;labelBackgroundColor=default;align=center;verticalAlign=middle;fontStyle=1;fontColor=default;fontSize=12;" parent="h60n3V_Y3-XpyphDbNl4-305" vertex="1">
          <mxGeometry relative="1" as="geometry">
            <mxPoint x="-51" as="offset" />
          </mxGeometry>
        </mxCell>
        <mxCell id="h60n3V_Y3-XpyphDbNl4-308" value="Make 시나리오 쪽에서 처리" style="html=1;overflow=block;blockSpacing=1;whiteSpace=wrap;fontSize=12;align=center;spacingLeft=8.4;spacingRight=8.4;spacingTop=2.4;spacing=3.6;strokeColor=#ff80df;strokeOpacity=100;fillOpacity=100;rounded=1;absoluteArcSize=1;arcSize=12;fillColor=#ffd6f5;strokeWidth=NaN;lucidId=1Ma_ER_8HpqC;" parent="1" vertex="1">
          <mxGeometry x="-773" y="450" width="172" height="90" as="geometry" />
        </mxCell>
        <mxCell id="h60n3V_Y3-XpyphDbNl4-309" value="시나리오 처리 방법" style="html=1;overflow=block;blockSpacing=1;whiteSpace=wrap;rhombus;fontSize=12;fontColor=#333333;align=center;spacingLeft=8.4;spacingRight=8.4;spacingTop=2.4;spacing=3.6;strokeColor=#fcce14;strokeOpacity=100;fillOpacity=100;rounded=1;absoluteArcSize=1;arcSize=12;fillColor=#fcfcca;strokeWidth=1.5;lucidId=fPa_n0Sr~VEI;" parent="1" vertex="1">
          <mxGeometry x="-773" y="600" width="172" height="119" as="geometry" />
        </mxCell>
        <mxCell id="h60n3V_Y3-XpyphDbNl4-310" value="" style="html=1;jettySize=18;whiteSpace=wrap;fontSize=12;strokeColor=#3a414a;strokeOpacity=100;strokeWidth=0.8;rounded=1;arcSize=12;edgeStyle=orthogonalEdgeStyle;startArrow=none;endArrow=block;endFill=1;exitX=0.5;exitY=1.008;exitPerimeter=0;entryX=0.5;entryY=0.009;entryPerimeter=0;lucidId=kPa_5Dbtlm~L;" parent="1" source="h60n3V_Y3-XpyphDbNl4-308" target="h60n3V_Y3-XpyphDbNl4-309" edge="1">
          <mxGeometry width="100" height="100" relative="1" as="geometry">
            <Array as="points" />
          </mxGeometry>
        </mxCell>
        <mxCell id="h60n3V_Y3-XpyphDbNl4-311" value="업데이트 데이터 중 일정 기간 이후 데이터만 가져온 뒤 중복 여부 확인하고 데이터 bulk 삽입." style="html=1;overflow=block;blockSpacing=1;whiteSpace=wrap;fontSize=12;fontColor=#333333;align=center;spacingLeft=8.4;spacingRight=8.4;spacingTop=2.4;spacing=3.6;strokeColor=#ff80df;strokeOpacity=100;fillOpacity=100;rounded=1;absoluteArcSize=1;arcSize=12;fillColor=#ffd6f5;strokeWidth=1.5;lucidId=YPa_IS6eAiJd;" parent="1" vertex="1">
          <mxGeometry x="-980" y="992" width="172" height="110" as="geometry" />
        </mxCell>
        <mxCell id="h60n3V_Y3-XpyphDbNl4-312" value="" style="html=1;jettySize=18;whiteSpace=wrap;fontSize=12;fontFamily=Liberation Serif;fontColor=#333333;fontStyle=1;strokeColor=#3a414a;strokeOpacity=100;strokeWidth=0.8;rounded=1;arcSize=12;edgeStyle=orthogonalEdgeStyle;startArrow=none;endArrow=block;endFill=1;exitX=0.627;exitY=0.881;exitPerimeter=0;entryX=0.5;entryY=-0.006;entryPerimeter=0;lucidId=6Pa_B_xISTCe;" parent="1" source="h60n3V_Y3-XpyphDbNl4-309" target="h60n3V_Y3-XpyphDbNl4-320" edge="1">
          <mxGeometry width="100" height="100" relative="1" as="geometry">
            <Array as="points" />
          </mxGeometry>
        </mxCell>
        <mxCell id="h60n3V_Y3-XpyphDbNl4-313" value="&lt;div style=&quot;display: flex; justify-content: center; text-align: center; align-items: baseline; font-size: 12px; line-height: 1.25; margin-top: -2px;&quot;&gt;&lt;span style=&quot;font-size: 12px;&quot;&gt;&lt;span style=&quot;font-size: 12px; color: rgb(51, 51, 51); font-weight: bold; font-family: &amp;quot;Liberation Serif&amp;quot;;&quot;&gt;http로 구&lt;/span&gt;&lt;span style=&quot;font-size: 12px; font-weight: bold; font-family: &amp;quot;Liberation Serif&amp;quot;;&quot;&gt;성&lt;/span&gt;&lt;/span&gt;&lt;/div&gt;" style="text;html=1;resizable=0;labelBackgroundColor=default;align=center;verticalAlign=middle;fontFamily=Liberation Serif;fontSize=12;" parent="h60n3V_Y3-XpyphDbNl4-312" vertex="1">
          <mxGeometry relative="1" as="geometry" />
        </mxCell>
        <mxCell id="h60n3V_Y3-XpyphDbNl4-314" value="" style="html=1;jettySize=18;whiteSpace=wrap;overflow=block;blockSpacing=1;fontSize=12;fontFamily=Liberation Serif;strokeColor=#3a414a;strokeOpacity=100;strokeWidth=0.8;rounded=1;arcSize=12;edgeStyle=orthogonalEdgeStyle;startArrow=none;endArrow=block;endFill=1;exitX=0.373;exitY=0.881;exitPerimeter=0;entryX=0.5;entryY=-0.006;entryPerimeter=0;lucidId=dQa_PlJsAjxJ;" parent="1" source="h60n3V_Y3-XpyphDbNl4-309" target="h60n3V_Y3-XpyphDbNl4-325" edge="1">
          <mxGeometry width="100" height="100" relative="1" as="geometry">
            <Array as="points" />
          </mxGeometry>
        </mxCell>
        <mxCell id="h60n3V_Y3-XpyphDbNl4-315" value="google sheet로 구성" style="text;html=1;resizable=0;labelBackgroundColor=default;align=center;verticalAlign=middle;fontStyle=1;fontColor=#333333;fontSize=12;" parent="h60n3V_Y3-XpyphDbNl4-314" vertex="1">
          <mxGeometry relative="1" as="geometry" />
        </mxCell>
        <mxCell id="h60n3V_Y3-XpyphDbNl4-316" value="인스타 링크가 DB에 존재하는가? " style="html=1;overflow=block;blockSpacing=1;whiteSpace=wrap;rhombus;fontSize=12;fontColor=#333333;align=center;spacingLeft=8.4;spacingRight=8.4;spacingTop=2.4;spacing=3.8;strokeColor=#fcce14;strokeOpacity=100;fillOpacity=100;rounded=1;absoluteArcSize=1;arcSize=12;fillColor=#fcfcca;strokeWidth=NaN;lucidId=6Va_PYnjcVJM;" parent="1" vertex="1">
          <mxGeometry x="-748" y="992" width="180" height="130" as="geometry" />
        </mxCell>
        <mxCell id="h60n3V_Y3-XpyphDbNl4-317" value="" style="html=1;jettySize=18;whiteSpace=wrap;fontSize=12;fontFamily=Liberation Serif;fontColor=#333333;fontStyle=1;strokeColor=#3a414a;strokeOpacity=100;strokeWidth=0.8;rounded=1;arcSize=12;edgeStyle=orthogonalEdgeStyle;startArrow=none;endArrow=block;endFill=1;exitX=0.5;exitY=0.991;exitPerimeter=0;entryX=0.5;entryY=-0.006;entryPerimeter=0;lucidId=wWa_nT1nB~XF;" parent="1" source="h60n3V_Y3-XpyphDbNl4-316" target="h60n3V_Y3-XpyphDbNl4-319" edge="1">
          <mxGeometry width="100" height="100" relative="1" as="geometry">
            <Array as="points" />
          </mxGeometry>
        </mxCell>
        <mxCell id="h60n3V_Y3-XpyphDbNl4-318" value="Yes" style="text;html=1;resizable=0;labelBackgroundColor=default;align=center;verticalAlign=middle;fontStyle=1;fontColor=#333333;fontSize=12;" parent="h60n3V_Y3-XpyphDbNl4-317" vertex="1">
          <mxGeometry relative="1" as="geometry" />
        </mxCell>
        <mxCell id="h60n3V_Y3-XpyphDbNl4-319" value="post request로 요약된 정보 넣기" style="html=1;overflow=block;blockSpacing=1;whiteSpace=wrap;fontSize=12;fontColor=#333333;align=center;spacingLeft=8.4;spacingRight=8.4;spacingTop=2.4;spacing=3.8;strokeColor=#fcce14;strokeOpacity=100;fillOpacity=100;rounded=1;absoluteArcSize=1;arcSize=12;fillColor=#ffd6f5;strokeWidth=NaN;lucidId=wWa_gd4JG9Ot;" parent="1" vertex="1">
          <mxGeometry x="-718" y="1206" width="180" height="130" as="geometry" />
        </mxCell>
        <mxCell id="h60n3V_Y3-XpyphDbNl4-320" value="Make 시작" style="html=1;overflow=block;blockSpacing=1;whiteSpace=wrap;fontSize=12;fontColor=#333333;align=center;spacingLeft=8.4;spacingRight=8.4;spacingTop=2.4;spacing=3.8;strokeColor=#fcce14;strokeOpacity=100;fillOpacity=100;rounded=1;absoluteArcSize=1;arcSize=12;fillColor=#fcfcca;strokeWidth=NaN;lucidId=KYa_tOaSOFqW;" parent="1" vertex="1">
          <mxGeometry x="-748" y="803" width="180" height="130" as="geometry" />
        </mxCell>
        <mxCell id="h60n3V_Y3-XpyphDbNl4-321" value="" style="html=1;jettySize=18;whiteSpace=wrap;fontSize=12;strokeColor=#3a414a;strokeOpacity=100;strokeWidth=0.8;rounded=1;arcSize=12;edgeStyle=orthogonalEdgeStyle;startArrow=none;endArrow=block;endFill=1;exitX=0.5;exitY=1.006;exitPerimeter=0;entryX=0.5;entryY=0.009;entryPerimeter=0;lucidId=cZa_NjFlJvX6;" parent="1" source="h60n3V_Y3-XpyphDbNl4-320" target="h60n3V_Y3-XpyphDbNl4-316" edge="1">
          <mxGeometry width="100" height="100" relative="1" as="geometry">
            <Array as="points" />
          </mxGeometry>
        </mxCell>
        <mxCell id="h60n3V_Y3-XpyphDbNl4-322" value="" style="html=1;jettySize=18;whiteSpace=wrap;fontSize=12;fontFamily=Liberation Serif;fontColor=#333333;fontStyle=1;strokeColor=#3a414a;strokeOpacity=100;strokeWidth=0.8;rounded=1;arcSize=12;edgeStyle=orthogonalEdgeStyle;startArrow=none;endArrow=block;endFill=1;exitX=0.373;exitY=0.88;exitPerimeter=0;entryX=0.5;entryY=-0.008;entryPerimeter=0;lucidId=h0a_r2KYJ2LM;" parent="1" source="h60n3V_Y3-XpyphDbNl4-316" target="h60n3V_Y3-XpyphDbNl4-324" edge="1">
          <mxGeometry width="100" height="100" relative="1" as="geometry">
            <Array as="points" />
          </mxGeometry>
        </mxCell>
        <mxCell id="h60n3V_Y3-XpyphDbNl4-323" value="No" style="text;html=1;resizable=0;labelBackgroundColor=default;align=center;verticalAlign=middle;fontStyle=1;fontColor=#333333;fontSize=12;" parent="h60n3V_Y3-XpyphDbNl4-322" vertex="1">
          <mxGeometry relative="1" as="geometry" />
        </mxCell>
        <mxCell id="h60n3V_Y3-XpyphDbNl4-324" value="다음 게시글로 넘어가기" style="html=1;overflow=block;blockSpacing=1;whiteSpace=wrap;fontSize=12;fontFamily=Liberation Serif;spacing=9;strokeColor=#ff80df;strokeOpacity=100;fillOpacity=100;rounded=1;absoluteArcSize=1;arcSize=12;fillColor=#ffd6f5;strokeWidth=NaN;lucidId=r0a_AdXmPHzA;" parent="1" vertex="1">
          <mxGeometry x="-898" y="1206" width="120" height="90" as="geometry" />
        </mxCell>
        <mxCell id="h60n3V_Y3-XpyphDbNl4-325" value="기존 구축해둔 make 로직으로 google sheet 업데이트" style="html=1;overflow=block;blockSpacing=1;whiteSpace=wrap;fontSize=12;fontFamily=Liberation Serif;spacing=9;strokeColor=#ff80df;strokeOpacity=100;fillOpacity=100;rounded=1;absoluteArcSize=1;arcSize=12;fillColor=#ffd6f5;strokeWidth=NaN;lucidId=E2a_nUtEATgs;" parent="1" vertex="1">
          <mxGeometry x="-954" y="809" width="120" height="118" as="geometry" />
        </mxCell>
        <mxCell id="h60n3V_Y3-XpyphDbNl4-326" value="" style="html=1;jettySize=18;whiteSpace=wrap;fontSize=12;strokeColor=#3a414a;strokeOpacity=100;strokeWidth=0.8;rounded=1;arcSize=12;edgeStyle=orthogonalEdgeStyle;startArrow=none;endArrow=block;endFill=1;exitX=0.5;exitY=1.006;exitPerimeter=0;entryX=0.5;entryY=-0.007;entryPerimeter=0;lucidId=e3a_oD5_fBAO;" parent="1" source="h60n3V_Y3-XpyphDbNl4-325" target="h60n3V_Y3-XpyphDbNl4-311" edge="1">
          <mxGeometry width="100" height="100" relative="1" as="geometry">
            <Array as="points" />
          </mxGeometry>
        </mxCell>
        <mxCell id="h60n3V_Y3-XpyphDbNl4-327" value="make에서 google sheet 업데이트 이후 실행" style="text;html=1;resizable=0;labelBackgroundColor=default;align=center;verticalAlign=middle;fontStyle=1;fontColor=#333333;fontSize=12;" parent="h60n3V_Y3-XpyphDbNl4-326" vertex="1">
          <mxGeometry relative="1" as="geometry" />
        </mxCell>
        <mxCell id="h60n3V_Y3-XpyphDbNl4-328" value="" style="html=1;jettySize=18;whiteSpace=wrap;fontSize=12;strokeColor=#3a414a;strokeOpacity=100;strokeWidth=0.8;rounded=1;arcSize=12;edgeStyle=orthogonalEdgeStyle;startArrow=none;endArrow=block;endFill=1;exitX=0.5;exitY=1.008;exitPerimeter=0;entryX=0.5;entryY=-0.008;entryPerimeter=0;lucidId=a_a_2JQ9Lne7;" parent="1" source="h60n3V_Y3-XpyphDbNl4-301" target="h60n3V_Y3-XpyphDbNl4-329" edge="1">
          <mxGeometry width="100" height="100" relative="1" as="geometry">
            <Array as="points" />
          </mxGeometry>
        </mxCell>
        <UserObject label="sns를 제외한 일반 site의 모델 정보를 가져온다." Notes="crawl_site 모델 필요&#xa;name&#xa;url&#xa;selector&#xa;pagination(type[query,path], format:ex) /{page}, page={page})" id="h60n3V_Y3-XpyphDbNl4-329">
          <mxCell style="html=1;overflow=block;blockSpacing=1;whiteSpace=wrap;fontSize=12;align=center;spacingLeft=8.4;spacingRight=8.4;spacingTop=2.4;spacing=3.6;strokeColor=#ff80df;strokeOpacity=100;fillOpacity=100;rounded=1;absoluteArcSize=1;arcSize=12;fillColor=#ffd6f5;strokeWidth=NaN;lucidId=a_a_WjPJtKlo;" parent="1" vertex="1">
            <mxGeometry x="-281" y="600" width="172" height="90" as="geometry" />
          </mxCell>
        </UserObject>
        <mxCell id="h60n3V_Y3-XpyphDbNl4-330" value="" style="html=1;jettySize=18;whiteSpace=wrap;fontSize=12;strokeColor=#3a414a;strokeOpacity=100;strokeWidth=0.8;rounded=1;arcSize=12;edgeStyle=orthogonalEdgeStyle;startArrow=none;endArrow=block;endFill=1;exitX=0.5;exitY=1.008;exitPerimeter=0;entryX=0.5;entryY=-0.008;entryPerimeter=0;lucidId=Oab_YPTMP9fb;" parent="1" source="h60n3V_Y3-XpyphDbNl4-329" target="h60n3V_Y3-XpyphDbNl4-331" edge="1">
          <mxGeometry width="100" height="100" relative="1" as="geometry">
            <Array as="points" />
          </mxGeometry>
        </mxCell>
        <mxCell id="h60n3V_Y3-XpyphDbNl4-331" value="html 정보 request 요청" style="html=1;overflow=block;blockSpacing=1;whiteSpace=wrap;fontSize=12;align=center;spacingLeft=8.4;spacingRight=8.4;spacingTop=2.4;spacing=3.6;strokeColor=#ff80df;strokeOpacity=100;fillOpacity=100;rounded=1;absoluteArcSize=1;arcSize=12;fillColor=#ffd6f5;strokeWidth=NaN;lucidId=Oab_eIXQXN6i;" parent="1" vertex="1">
          <mxGeometry x="-281" y="750" width="172" height="90" as="geometry" />
        </mxCell>
        <mxCell id="h60n3V_Y3-XpyphDbNl4-332" value="요청 성공 여부" style="html=1;overflow=block;blockSpacing=1;whiteSpace=wrap;rhombus;fontSize=12;fontFamily=Liberation Serif;spacing=3.8;strokeColor=#fcce14;strokeOpacity=100;fillOpacity=100;rounded=1;absoluteArcSize=1;arcSize=12;fillColor=#fcfcca;strokeWidth=NaN;lucidId=qbb_XIhSL3Si;" parent="1" vertex="1">
          <mxGeometry x="-256" y="885" width="120" height="90" as="geometry" />
        </mxCell>
        <mxCell id="h60n3V_Y3-XpyphDbNl4-333" value="" style="html=1;jettySize=18;whiteSpace=wrap;fontSize=12;strokeColor=#3a414a;strokeOpacity=100;strokeWidth=0.8;rounded=1;arcSize=12;edgeStyle=orthogonalEdgeStyle;startArrow=none;endArrow=block;endFill=1;exitX=0.5;exitY=1.008;exitPerimeter=0;entryX=0.5;entryY=0.014;entryPerimeter=0;lucidId=vbb_fnVw~Lj_;" parent="1" source="h60n3V_Y3-XpyphDbNl4-331" target="h60n3V_Y3-XpyphDbNl4-332" edge="1">
          <mxGeometry width="100" height="100" relative="1" as="geometry">
            <Array as="points" />
          </mxGeometry>
        </mxCell>
        <mxCell id="h60n3V_Y3-XpyphDbNl4-334" value="" style="html=1;jettySize=18;whiteSpace=wrap;fontSize=12;fontFamily=Liberation Serif;fontColor=#333333;fontStyle=1;strokeColor=#3a414a;strokeOpacity=100;strokeWidth=0.8;rounded=1;arcSize=12;edgeStyle=orthogonalEdgeStyle;startArrow=none;endArrow=block;endFill=1;exitX=0.981;exitY=0.5;exitPerimeter=0;entryX=0.5;entryY=1.008;entryPerimeter=0;lucidId=Dbb_qk1pL5lx;" parent="1" source="h60n3V_Y3-XpyphDbNl4-332" target="h60n3V_Y3-XpyphDbNl4-336" edge="1">
          <mxGeometry width="100" height="100" relative="1" as="geometry">
            <Array as="points">
              <mxPoint x="103" y="930" />
            </Array>
          </mxGeometry>
        </mxCell>
        <mxCell id="h60n3V_Y3-XpyphDbNl4-335" value="No" style="text;html=1;resizable=0;labelBackgroundColor=default;align=center;verticalAlign=middle;fontStyle=1;fontColor=#333333;fontSize=12;" parent="h60n3V_Y3-XpyphDbNl4-334" vertex="1">
          <mxGeometry relative="1" as="geometry" />
        </mxCell>
        <mxCell id="h60n3V_Y3-XpyphDbNl4-336" value="5회 재시도" style="html=1;overflow=block;blockSpacing=1;whiteSpace=wrap;fontSize=12;fontFamily=Liberation Serif;spacing=9;strokeColor=#ff80df;strokeOpacity=100;fillOpacity=100;rounded=1;absoluteArcSize=1;arcSize=12;fillColor=#ffd6f5;strokeWidth=NaN;lucidId=acb_KqdaUz5b;" parent="1" vertex="1">
          <mxGeometry x="43" y="750" width="120" height="90" as="geometry" />
        </mxCell>
        <mxCell id="h60n3V_Y3-XpyphDbNl4-337" value="" style="html=1;jettySize=18;whiteSpace=wrap;fontSize=12;strokeColor=#3a414a;strokeOpacity=100;strokeWidth=0.8;rounded=1;arcSize=12;edgeStyle=orthogonalEdgeStyle;startArrow=none;endArrow=block;endFill=1;exitX=-0.006;exitY=0.5;exitPerimeter=0;entryX=1.004;entryY=0.5;entryPerimeter=0;lucidId=pdb_Uv1Hrb9r;" parent="1" source="h60n3V_Y3-XpyphDbNl4-336" target="h60n3V_Y3-XpyphDbNl4-331" edge="1">
          <mxGeometry width="100" height="100" relative="1" as="geometry">
            <Array as="points" />
          </mxGeometry>
        </mxCell>
        <mxCell id="h60n3V_Y3-XpyphDbNl4-338" value="GPT로 요약" style="html=1;overflow=block;blockSpacing=1;whiteSpace=wrap;fontSize=12;fontFamily=Liberation Serif;spacing=9;strokeColor=#ff80df;strokeOpacity=100;fillOpacity=100;rounded=1;absoluteArcSize=1;arcSize=12;fillColor=#ffd6f5;strokeWidth=NaN;lucidId=Adb_96gvNgXP;" parent="1" vertex="1">
          <mxGeometry x="-256" y="1020" width="120" height="90" as="geometry" />
        </mxCell>
        <mxCell id="h60n3V_Y3-XpyphDbNl4-339" value="" style="html=1;jettySize=18;whiteSpace=wrap;fontSize=12;strokeColor=#3a414a;strokeOpacity=100;strokeWidth=0.8;rounded=1;arcSize=12;edgeStyle=orthogonalEdgeStyle;startArrow=none;endArrow=block;endFill=1;exitX=0.5;exitY=0.986;exitPerimeter=0;entryX=0.5;entryY=-0.008;entryPerimeter=0;lucidId=Ddb_sPi.dvF1;" parent="1" source="h60n3V_Y3-XpyphDbNl4-332" target="h60n3V_Y3-XpyphDbNl4-338" edge="1">
          <mxGeometry width="100" height="100" relative="1" as="geometry">
            <Array as="points" />
          </mxGeometry>
        </mxCell>
        <mxCell id="h60n3V_Y3-XpyphDbNl4-340" value="Yes" style="text;html=1;resizable=0;labelBackgroundColor=default;align=center;verticalAlign=middle;fontStyle=1;fontSize=12;" parent="h60n3V_Y3-XpyphDbNl4-339" vertex="1">
          <mxGeometry x="-0.3429488915871326" relative="1" as="geometry" />
        </mxCell>
        <mxCell id="h60n3V_Y3-XpyphDbNl4-341" value="" style="html=1;jettySize=18;whiteSpace=wrap;fontSize=12;strokeColor=#3a414a;strokeOpacity=100;strokeWidth=0.8;rounded=1;arcSize=12;edgeStyle=orthogonalEdgeStyle;startArrow=none;endArrow=block;endFill=1;exitX=0.5;exitY=1.008;exitPerimeter=0;entryX=0.5;entryY=0.014;entryPerimeter=0;lucidId=Kfb_D5ncPBD9;" parent="1" source="h60n3V_Y3-XpyphDbNl4-338" target="h60n3V_Y3-XpyphDbNl4-342" edge="1">
          <mxGeometry width="100" height="100" relative="1" as="geometry">
            <Array as="points" />
          </mxGeometry>
        </mxCell>
        <mxCell id="h60n3V_Y3-XpyphDbNl4-342" value="새로운 데이터 여부 체크" style="html=1;overflow=block;blockSpacing=1;whiteSpace=wrap;rhombus;fontSize=12;fontFamily=Liberation Serif;spacing=3.8;strokeColor=#fcce14;strokeOpacity=100;fillOpacity=100;rounded=1;absoluteArcSize=1;arcSize=12;fillColor=#fcfcca;strokeWidth=NaN;lucidId=Mfb_MmH-eRbS;" parent="1" vertex="1">
          <mxGeometry x="-256" y="1170" width="120" height="90" as="geometry" />
        </mxCell>
        <mxCell id="h60n3V_Y3-XpyphDbNl4-343" value="" style="html=1;jettySize=18;whiteSpace=wrap;fontSize=12;fontFamily=Liberation Serif;fontColor=#333333;fontStyle=1;strokeColor=#3a414a;strokeOpacity=100;strokeWidth=0.8;rounded=1;arcSize=12;edgeStyle=orthogonalEdgeStyle;startArrow=none;endArrow=block;endFill=1;exitX=0.5;exitY=0.986;exitPerimeter=0;entryX=0.5;entryY=-0.008;entryPerimeter=0;lucidId=Yfb_RSzkndqH;" parent="1" source="h60n3V_Y3-XpyphDbNl4-342" target="h60n3V_Y3-XpyphDbNl4-345" edge="1">
          <mxGeometry width="100" height="100" relative="1" as="geometry">
            <Array as="points" />
          </mxGeometry>
        </mxCell>
        <mxCell id="h60n3V_Y3-XpyphDbNl4-344" value="Yes" style="text;html=1;resizable=0;labelBackgroundColor=default;align=center;verticalAlign=middle;fontStyle=1;fontColor=#333333;fontSize=12;" parent="h60n3V_Y3-XpyphDbNl4-343" vertex="1">
          <mxGeometry relative="1" as="geometry" />
        </mxCell>
        <mxCell id="h60n3V_Y3-XpyphDbNl4-345" value="다음 페이지 시작" style="html=1;overflow=block;blockSpacing=1;whiteSpace=wrap;fontSize=12;fontFamily=Liberation Serif;spacing=9;strokeColor=#ff80df;strokeOpacity=100;fillOpacity=100;rounded=1;absoluteArcSize=1;arcSize=12;fillColor=#ffd6f5;strokeWidth=NaN;lucidId=Zfb_lQWUY75C;" parent="1" vertex="1">
          <mxGeometry x="-155" y="1365" width="120" height="90" as="geometry" />
        </mxCell>
        <mxCell id="h60n3V_Y3-XpyphDbNl4-346" value="" style="html=1;jettySize=18;whiteSpace=wrap;fontSize=12;fontFamily=Liberation Serif;fontColor=#333333;fontStyle=1;strokeColor=#3a414a;strokeOpacity=100;strokeWidth=0.8;rounded=1;arcSize=12;edgeStyle=orthogonalEdgeStyle;startArrow=none;endArrow=block;endFill=1;exitX=0.5;exitY=0.986;exitPerimeter=0;entryX=0.5;entryY=-0.008;entryPerimeter=0;lucidId=ggb_DOCWC9tE;" parent="1" source="h60n3V_Y3-XpyphDbNl4-342" target="h60n3V_Y3-XpyphDbNl4-348" edge="1">
          <mxGeometry width="100" height="100" relative="1" as="geometry">
            <Array as="points" />
          </mxGeometry>
        </mxCell>
        <mxCell id="h60n3V_Y3-XpyphDbNl4-347" value="No" style="text;html=1;resizable=0;labelBackgroundColor=default;align=center;verticalAlign=middle;fontStyle=1;fontColor=#333333;fontSize=12;" parent="h60n3V_Y3-XpyphDbNl4-346" vertex="1">
          <mxGeometry relative="1" as="geometry" />
        </mxCell>
        <mxCell id="h60n3V_Y3-XpyphDbNl4-348" value="데이터 삽입" style="html=1;overflow=block;blockSpacing=1;whiteSpace=wrap;fontSize=12;fontFamily=Liberation Serif;spacing=9;strokeColor=#ff80df;strokeOpacity=100;fillOpacity=100;rounded=1;absoluteArcSize=1;arcSize=12;fillColor=#ffd6f5;strokeWidth=NaN;lucidId=igb_i8YCvoJF;" parent="1" vertex="1">
          <mxGeometry x="-401" y="1365" width="120" height="90" as="geometry" />
        </mxCell>
        <mxCell id="h60n3V_Y3-XpyphDbNl4-349" value="" style="html=1;jettySize=18;whiteSpace=wrap;fontSize=12;strokeColor=#3a414a;strokeOpacity=100;strokeWidth=0.8;rounded=1;arcSize=12;edgeStyle=orthogonalEdgeStyle;startArrow=none;endArrow=block;endFill=1;exitX=1.004;exitY=0.5;exitPerimeter=0;entryX=-0.004;entryY=0.5;entryPerimeter=0;lucidId=7gb_P_987k-j;" parent="1" source="h60n3V_Y3-XpyphDbNl4-329" target="h60n3V_Y3-XpyphDbNl4-350" edge="1">
          <mxGeometry width="100" height="100" relative="1" as="geometry">
            <Array as="points" />
          </mxGeometry>
        </mxCell>
        <mxCell id="h60n3V_Y3-XpyphDbNl4-350" value="Process" style="html=1;overflow=block;blockSpacing=1;whiteSpace=wrap;fontSize=12;fontColor=#3a414a;align=center;spacingLeft=8.4;spacingRight=8.4;spacingTop=2.4;spacing=3.6;strokeColor=#ff80df;strokeOpacity=100;fillOpacity=100;rounded=1;absoluteArcSize=1;arcSize=12;fillColor=#ffd6f5;strokeWidth=NaN;lucidId=7gb_gX.tYMd3;" parent="1" vertex="1">
          <mxGeometry x="-50" y="600" width="172" height="90" as="geometry" />
        </mxCell>
        <mxCell id="h60n3V_Y3-XpyphDbNl4-351" value="Customer" style="html=1;overflow=block;blockSpacing=1;whiteSpace=wrap;fontSize=12;fontColor=#333333;align=center;spacingLeft=8.4;spacingRight=8.4;spacingTop=2.4;spacing=3.6;strokeColor=#6db1ff;strokeOpacity=100;fillOpacity=100;rounded=1;absoluteArcSize=1;arcSize=12;fillColor=#cfe4ff;strokeWidth=1.5;lucidId=uhb_kY6-6tLA;" parent="1" vertex="1">
          <mxGeometry x="415" y="80" width="172" height="101" as="geometry" />
        </mxCell>
        <mxCell id="h60n3V_Y3-XpyphDbNl4-352" value="" style="html=1;jettySize=18;whiteSpace=wrap;fontSize=12;strokeColor=#3a414a;strokeOpacity=100;strokeWidth=0.8;rounded=1;arcSize=12;edgeStyle=orthogonalEdgeStyle;startArrow=none;endArrow=block;endFill=1;exitX=0.5;exitY=1.007;exitPerimeter=0;entryX=0.5;entryY=-0.008;entryPerimeter=0;lucidId=Ghb_JOd6yQps;" parent="1" source="h60n3V_Y3-XpyphDbNl4-351" target="h60n3V_Y3-XpyphDbNl4-353" edge="1">
          <mxGeometry width="100" height="100" relative="1" as="geometry">
            <Array as="points" />
          </mxGeometry>
        </mxCell>
        <mxCell id="h60n3V_Y3-XpyphDbNl4-353" value="고객이 링크 or 사이트명 입력" style="html=1;overflow=block;blockSpacing=1;whiteSpace=wrap;fontSize=12;fontFamily=Liberation Serif;spacing=9;strokeColor=#9391ff;strokeOpacity=100;fillOpacity=100;rounded=1;absoluteArcSize=1;arcSize=12;fillColor=#dedeff;strokeWidth=NaN;lucidId=Ihb_cbET7bbj;" parent="1" vertex="1">
          <mxGeometry x="441" y="225" width="120" height="90" as="geometry" />
        </mxCell>
        <mxCell id="h60n3V_Y3-XpyphDbNl4-354" value="" style="html=1;jettySize=18;whiteSpace=wrap;fontSize=12;strokeColor=#3a414a;strokeOpacity=100;strokeWidth=0.8;rounded=1;arcSize=12;edgeStyle=orthogonalEdgeStyle;startArrow=none;endArrow=block;endFill=1;exitX=0.5;exitY=1.008;exitPerimeter=0;entryX=0.5;entryY=0.014;entryPerimeter=0;lucidId=Tjb_KUBp9KXl;" parent="1" source="h60n3V_Y3-XpyphDbNl4-353" target="h60n3V_Y3-XpyphDbNl4-355" edge="1">
          <mxGeometry width="100" height="100" relative="1" as="geometry">
            <Array as="points" />
          </mxGeometry>
        </mxCell>
        <mxCell id="h60n3V_Y3-XpyphDbNl4-355" value="유료 고객" style="html=1;overflow=block;blockSpacing=1;whiteSpace=wrap;rhombus;fontSize=12;fontFamily=Liberation Serif;spacing=3.8;strokeColor=#fcce14;strokeOpacity=100;fillOpacity=100;rounded=1;absoluteArcSize=1;arcSize=12;fillColor=#fcfcca;strokeWidth=NaN;lucidId=Ujb__.bI9LhJ;" parent="1" vertex="1">
          <mxGeometry x="441" y="340" width="120" height="90" as="geometry" />
        </mxCell>
        <mxCell id="h60n3V_Y3-XpyphDbNl4-356" value="" style="html=1;jettySize=18;whiteSpace=wrap;fontSize=12;fontFamily=Liberation Serif;fontColor=#333333;fontStyle=1;strokeColor=#3a414a;strokeOpacity=100;strokeWidth=0.8;rounded=1;arcSize=12;edgeStyle=orthogonalEdgeStyle;startArrow=none;endArrow=block;endFill=1;exitX=0.5;exitY=0.986;exitPerimeter=0;entryX=0.5;entryY=-0.006;entryPerimeter=0;lucidId=Kkb_2o582dI5;" parent="1" source="h60n3V_Y3-XpyphDbNl4-355" target="h60n3V_Y3-XpyphDbNl4-358" edge="1">
          <mxGeometry width="100" height="100" relative="1" as="geometry">
            <Array as="points">
              <mxPoint x="440" y="439" />
            </Array>
          </mxGeometry>
        </mxCell>
        <mxCell id="h60n3V_Y3-XpyphDbNl4-357" value="Yes" style="text;html=1;resizable=0;labelBackgroundColor=default;align=center;verticalAlign=middle;fontStyle=1;fontColor=#333333;fontSize=12;" parent="h60n3V_Y3-XpyphDbNl4-356" vertex="1">
          <mxGeometry relative="1" as="geometry" />
        </mxCell>
        <mxCell id="Lx4imsUk2JHRe6yTygNz-2" style="edgeStyle=orthogonalEdgeStyle;rounded=0;orthogonalLoop=1;jettySize=auto;html=1;exitX=0.5;exitY=1;exitDx=0;exitDy=0;fontSize=12;" edge="1" parent="1" source="h60n3V_Y3-XpyphDbNl4-358" target="Lx4imsUk2JHRe6yTygNz-3">
          <mxGeometry relative="1" as="geometry">
            <mxPoint x="440" y="690" as="targetPoint" />
          </mxGeometry>
        </mxCell>
        <mxCell id="h60n3V_Y3-XpyphDbNl4-358" value="입력한 정보 기준으로 페이지 크롤링 후 결과 보여주기" style="html=1;overflow=block;blockSpacing=1;whiteSpace=wrap;fontSize=12;fontFamily=Liberation Serif;spacing=9;strokeColor=#ff80df;strokeOpacity=100;fillOpacity=100;rounded=1;absoluteArcSize=1;arcSize=12;fillColor=#ffd6f5;strokeWidth=NaN;lucidId=Mkb_L96TIuhI;" parent="1" vertex="1">
          <mxGeometry x="380" y="490" width="120" height="80" as="geometry" />
        </mxCell>
        <mxCell id="h60n3V_Y3-XpyphDbNl4-359" value="" style="html=1;jettySize=18;whiteSpace=wrap;fontSize=12;fontFamily=Liberation Serif;fontColor=#333333;fontStyle=1;strokeColor=#3a414a;strokeOpacity=100;strokeWidth=0.8;rounded=1;arcSize=12;edgeStyle=orthogonalEdgeStyle;startArrow=none;endArrow=block;endFill=1;exitX=0.5;exitY=0.986;exitPerimeter=0;entryX=0.5;entryY=-0.005;entryPerimeter=0;lucidId=Skb_t3AgzQES;" parent="1" source="h60n3V_Y3-XpyphDbNl4-355" target="h60n3V_Y3-XpyphDbNl4-361" edge="1">
          <mxGeometry width="100" height="100" relative="1" as="geometry">
            <Array as="points">
              <mxPoint x="501" y="440" />
              <mxPoint x="615" y="440" />
            </Array>
          </mxGeometry>
        </mxCell>
        <mxCell id="h60n3V_Y3-XpyphDbNl4-360" value="No" style="text;html=1;resizable=0;labelBackgroundColor=default;align=center;verticalAlign=middle;fontStyle=1;fontColor=#333333;fontSize=12;" parent="h60n3V_Y3-XpyphDbNl4-359" vertex="1">
          <mxGeometry relative="1" as="geometry" />
        </mxCell>
        <mxCell id="h60n3V_Y3-XpyphDbNl4-361" value="사이트 목록 리스트를 보여주고, 선택해서 크롤링 예시 보여주기" style="html=1;overflow=block;blockSpacing=1;whiteSpace=wrap;fontSize=12;fontFamily=Liberation Serif;spacing=9;strokeColor=#ff80df;strokeOpacity=100;fillOpacity=100;rounded=1;absoluteArcSize=1;arcSize=12;fillColor=#ffd6f5;strokeWidth=NaN;lucidId=Tkb_s4UyWof5;" parent="1" vertex="1">
          <mxGeometry x="540" y="492" width="150" height="78" as="geometry" />
        </mxCell>
        <mxCell id="Lx4imsUk2JHRe6yTygNz-5" value="Yes" style="edgeStyle=orthogonalEdgeStyle;rounded=0;orthogonalLoop=1;jettySize=auto;html=1;exitX=0.5;exitY=1;exitDx=0;exitDy=0;entryX=0.5;entryY=0;entryDx=0;entryDy=0;" edge="1" parent="1" source="Lx4imsUk2JHRe6yTygNz-3" target="Lx4imsUk2JHRe6yTygNz-19">
          <mxGeometry relative="1" as="geometry">
            <mxPoint x="370" y="730" as="targetPoint" />
            <Array as="points">
              <mxPoint x="440" y="710" />
              <mxPoint x="371" y="710" />
              <mxPoint x="371" y="740" />
            </Array>
          </mxGeometry>
        </mxCell>
        <mxCell id="Lx4imsUk2JHRe6yTygNz-3" value="고객 수집 &lt;br&gt;요청" style="rhombus;whiteSpace=wrap;html=1;fillColor=#fcfcca;strokeColor=#d6b656;fontSize=12;" vertex="1" parent="1">
          <mxGeometry x="395" y="610" width="90" height="80" as="geometry" />
        </mxCell>
        <mxCell id="Lx4imsUk2JHRe6yTygNz-9" value="Customer" style="html=1;overflow=block;blockSpacing=1;whiteSpace=wrap;fontSize=16.7;fontColor=#333333;align=center;spacingLeft=8.4;spacingRight=8.4;spacingTop=2.4;spacing=3.6;strokeColor=#6db1ff;strokeOpacity=100;fillOpacity=100;rounded=1;absoluteArcSize=1;arcSize=12;fillColor=#cfe4ff;strokeWidth=1.5;lucidId=QEb_.zxC__Ga;" vertex="1" parent="1">
          <mxGeometry x="255" y="-375" width="172" height="101" as="geometry" />
        </mxCell>
        <mxCell id="Lx4imsUk2JHRe6yTygNz-10" value="Decision" style="html=1;overflow=block;blockSpacing=1;whiteSpace=wrap;rhombus;fontSize=16.7;fontColor=#333333;align=center;spacingLeft=8.4;spacingRight=8.4;spacingTop=2.4;spacing=3.6;strokeColor=#fcce14;strokeOpacity=100;fillOpacity=100;rounded=1;absoluteArcSize=1;arcSize=12;fillColor=#fcfcca;strokeWidth=1.5;lucidId=REb_99ZYc0bC;" vertex="1" parent="1">
          <mxGeometry x="435" y="-375" width="172" height="118" as="geometry" />
        </mxCell>
        <mxCell id="Lx4imsUk2JHRe6yTygNz-11" value="System" style="html=1;overflow=block;blockSpacing=1;whiteSpace=wrap;fontSize=16.7;fontColor=#282c33;align=center;spacingLeft=8.4;spacingRight=8.4;spacingTop=2.4;spacing=3.6;strokeColor=#9391ff;strokeOpacity=100;fillOpacity=100;rounded=1;absoluteArcSize=1;arcSize=12;fillColor=#dedeff;strokeWidth=1.5;lucidId=UEb_Uj5wWWNo;" vertex="1" parent="1">
          <mxGeometry x="619" y="-360" width="172" height="106" as="geometry" />
        </mxCell>
        <mxCell id="Lx4imsUk2JHRe6yTygNz-12" value="Technician" style="html=1;overflow=block;blockSpacing=1;whiteSpace=wrap;fontSize=16.7;fontColor=#333333;align=center;spacingLeft=8.4;spacingRight=8.4;spacingTop=2.4;spacing=3.6;strokeColor=#ff80df;strokeOpacity=100;fillOpacity=100;rounded=1;absoluteArcSize=1;arcSize=12;fillColor=#ffd6f5;strokeWidth=1.5;lucidId=WEb_~m_cG89U;" vertex="1" parent="1">
          <mxGeometry x="810" y="-360" width="172" height="90" as="geometry" />
        </mxCell>
        <mxCell id="Lx4imsUk2JHRe6yTygNz-13" value="Support team" style="html=1;overflow=block;blockSpacing=1;whiteSpace=wrap;fontSize=16.7;fontColor=#333333;align=center;spacingLeft=8.4;spacingRight=8.4;spacingTop=2.4;spacing=3.6;strokeColor=#00c2a8;strokeOpacity=100;fillOpacity=100;rounded=1;absoluteArcSize=1;arcSize=12;fillColor=#b8f5ed;strokeWidth=1.5;lucidId=ZEb_KaOEvbZO;" vertex="1" parent="1">
          <mxGeometry x="999" y="-360" width="172" height="106" as="geometry" />
        </mxCell>
        <mxCell id="Lx4imsUk2JHRe6yTygNz-19" value="Technician" style="html=1;overflow=block;blockSpacing=1;whiteSpace=wrap;fontSize=16.7;fontColor=#333333;align=center;spacingLeft=8.4;spacingRight=8.4;spacingTop=2.4;spacing=3.6;strokeColor=#ff80df;strokeOpacity=100;fillOpacity=100;rounded=1;absoluteArcSize=1;arcSize=12;fillColor=#ffd6f5;strokeWidth=1.5;lucidId=WEb_~m_cG89U;" vertex="1" parent="1">
          <mxGeometry x="280" y="750" width="172" height="90" as="geometry" />
        </mxCell>
      </root>
    </mxGraphModel>
  </diagram>
</mxfile>
